Coordinates
version=1
nRows=49
nColumns=12
inDegrees=yes

Units are S.I. units (second, meters, Newtons, ...)
Angles are in degrees

endheader
time	SC_y	SC_z	SC_x	AC_y	AC_z	AC_x	GH_y	GH_z	GH_yy	EL_x	PS_y
       0.0              -24.78          6.095          75.47          58.74          5.098          15.83         -82.54          1.909         -109.9          24.78          150.0
   0.04087              -24.78          6.093          75.47          58.74          5.096          15.83         -82.51          1.917         -109.8          24.78          149.9
   0.08174              -24.79          6.092          75.47          58.73          5.095          15.82         -82.48          1.926         -109.8          24.78          149.9
    0.1226              -24.79           6.09          75.47          58.73          5.094          15.82         -82.45          1.935         -109.7          24.77          149.9
    0.1635              -24.79          6.088          75.47          58.73          5.092          15.81         -82.41          1.945         -109.7          24.77          149.9
    0.2043               -24.8          6.086          75.48          58.72           5.09          15.81         -82.38          1.955         -109.6          24.77          149.8
    0.2452               -24.8          6.084          75.48          58.72          5.089          15.81         -82.34          1.967         -109.6          24.77          149.8
    0.2861              -24.81          6.082          75.48          58.71          5.087           15.8          -82.3          1.979         -109.5          24.77          149.8
     0.327              -24.81          6.079          75.48          58.71          5.085           15.8         -82.25          1.991         -109.5          24.77          149.8
    0.3678              -24.82          6.077          75.48           58.7          5.083          15.79          -82.2          2.005         -109.4          24.77          149.7
    0.4087              -24.82          6.074          75.48           58.7           5.08          15.78         -82.15           2.02         -109.3          24.76          149.7
    0.4496              -24.83          6.071          75.48          58.69          5.078          15.78          -82.1          2.036         -109.3          24.76          149.7
    0.4904              -24.83          6.068          75.48          58.68          5.075          15.77         -82.04          2.053         -109.2          24.76          149.6
    0.5313              -24.84          6.064          75.48          58.68          5.072          15.76         -81.97          2.071         -109.1          24.76          149.6
    0.5722              -24.85           6.06          75.48          58.67          5.069          15.76          -81.9          2.091         -109.0          24.76          149.5
     0.613              -24.86          6.056          75.48          58.66          5.066          15.75         -81.83          2.113         -108.9          24.75          149.5
    0.6539              -24.87          6.052          75.48          58.65          5.062          15.74         -81.75          2.137         -108.8          24.75          149.4
    0.6948              -24.88          6.047          75.48          58.64          5.058          15.73         -81.66          2.162         -108.7          24.75          149.3
    0.7357              -24.89          6.042          75.48          58.63          5.054          15.72         -81.56          2.191         -108.5          24.74          149.3
    0.7765               -24.9          6.036          75.49          58.62          5.049           15.7         -81.45          2.221         -108.4          24.74          149.2
    0.8174              -24.91          6.029          75.49          58.61          5.044          15.69         -81.34          2.255         -108.2          24.74          149.1
    0.8583              -24.93          6.022          75.49           58.6          5.038          15.67         -81.21          2.292         -108.1          24.73          149.0
    0.8991              -24.94          6.015          75.49          58.58          5.032          15.66         -81.06          2.333         -107.9          24.73          148.9
      0.94              -24.96          6.006          75.49          58.56          5.025          15.64         -80.91          2.379         -107.7          24.72          148.8
    0.9809              -24.98          5.996          75.49          58.54          5.017          15.62         -80.73          2.429         -107.4          24.71          148.7
     1.022               -25.0          5.986           75.5          58.52          5.008           15.6         -80.54          2.486         -107.2          24.71          148.5
     1.063              -25.02          5.974           75.5           58.5          4.998          15.57         -80.32          2.549         -106.9           24.7          148.4
     1.103              -25.05           5.96           75.5          58.47          4.987          15.54         -80.07           2.62         -106.5          24.69          148.2
     1.144              -25.08          5.945           75.5          58.44          4.975          15.51         -79.79            2.7         -106.1          24.68          148.0
     1.185              -25.12          5.928          75.51          58.41          4.961          15.47         -79.47          2.791         -105.7          24.67          147.8
     1.226              -25.16          5.908          75.51          58.37          4.944          15.43         -79.11          2.895         -105.2          24.66          147.5
     1.267               -25.2          5.885          75.52          58.32          4.926          15.38          -78.7          3.015         -104.7          24.64          147.2
     1.308              -25.25          5.859          75.52          58.27          4.904          15.33         -78.22          3.153         -104.0          24.63          146.9
     1.349              -25.31          5.829          75.53          58.21           4.88          15.26         -77.66          3.313         -103.3          24.61          146.5
      1.39              -25.39          5.793          75.54          58.14           4.85          15.19         -77.01            3.5         -102.4          24.58          146.0
      1.43              -25.47          5.752          75.54          58.06          4.816           15.1         -76.24          3.721         -101.4          24.56          145.5
     1.471              -25.57          5.702          75.55          57.96          4.775          14.99         -75.33          3.984         -100.1          24.52          144.9
     1.512              -25.69          5.642          75.57          57.84          4.726          14.86         -74.24          4.299         -98.66          24.49          144.1
     1.553              -25.84           5.57          75.58           57.7          4.667          14.71         -72.92          4.679         -96.88          24.44          143.1
     1.594              -26.01          5.482           75.6          57.52          4.595          14.52          -71.3          5.145          -94.7          24.38          142.0
     1.635              -26.23          5.373          75.62          57.31          4.506          14.29         -69.31          5.719         -92.01          24.31          140.6
     1.676               -26.5          5.238          75.65          57.04          4.395           14.0         -66.82          6.435         -88.66          24.22          138.8
     1.717              -26.85          5.067          75.69           56.7          4.255          13.63         -63.69          7.337         -84.43          24.11          136.6
     1.757              -27.28           4.85          75.73          56.27          4.077          13.17         -59.71          8.483         -79.06          23.97          133.8
     1.798              -27.84          4.572          75.79          55.72          3.849          12.58         -54.61          9.951         -72.19          23.79          130.2
     1.839              -28.56          4.215          75.86          55.01          3.556          11.82         -48.07          11.83         -63.37          23.56          125.5
      1.88              -29.48           3.76          75.96          54.11          3.183          10.84         -39.72          14.24         -52.11          23.27          119.6
     1.921              -30.63          3.187          76.08          52.97          2.713           9.62         -29.22          17.26         -37.94           22.9          112.2
     1.962              -32.03          2.489          76.22          51.59          2.141          8.129         -16.42          20.95         -20.68          22.45          103.1
